<svg xmlns="http://www.w3.org/2000/svg" width="184" height="184" fill="none" viewBox="0 0 184 184"><g clip-path="url(#psiquicos-apply-promo-a)"><path fill="url(#psiquicos-apply-promo-b)" d="M53 51c-6.627 0-12 5.373-12 12v12c0 1.657 1.357 2.969 2.98 3.296C50.838 79.68 56 85.736 56 93s-5.163 13.321-12.02 14.704c-1.623.327-2.98 1.639-2.98 3.296v11c0 6.627 5.373 12 12 12h79c6.627 0 12-5.373 12-12v-11c0-1.657-1.357-2.969-2.981-3.296C134.163 106.321 129 100.264 129 93s5.163-13.321 12.019-14.704C142.643 77.97 144 76.656 144 75V63c0-6.627-5.373-12-12-12z"/><path fill="#b45092" d="M77.991 77.992a6.82 6.82 0 0 1 9.632 0c2.655 2.655 2.655 6.972 0 9.631-2.655 2.656-6.972 2.656-9.632 0-2.655-2.659-2.655-6.976 0-9.632m3.446 28.911a2.36 2.36 0 0 1-1.67.697 2.32 2.32 0 0 1-1.67-.697 2.36 2.36 0 0 1 0-3.34l25.465-25.466a2.36 2.36 0 0 1 3.341 0 2.36 2.36 0 0 1 0 3.34zm25.572.106c-2.656 2.655-6.973 2.655-9.632 0-2.655-2.656-2.655-6.973 0-9.632 2.655-2.656 6.972-2.656 9.632 0 2.655 2.659 2.655 6.976 0 9.632"/><path fill="#f077c7" fill-rule="evenodd" d="M39.243 146.989c-.705-.251-1.447-.585-2.019-1.068-.68-.574-.955-1.314-1.141-2.092-.238-1-.334-2.065-.622-3.067-.107-.372-.313-.513-.401-.575a.98.98 0 0 0-.662-.184.96.96 0 0 0-.824.535 1.1 1.1 0 0 0-.103.279c-.02.092-.034.381-.056.5-.055.293-.1.587-.143.882-.144.981-.226 1.815-.678 2.717-.613 1.225-1.227 1.974-2.06 2.306-.805.321-1.768.26-2.999.009a5 5 0 0 0-.348-.073 1.012 1.012 0 0 0-.391 1.987q.167.037.332.07c1.663.411 3.588 1.881 4.706 3.167.345.397.85 1.506 1.365 2.213.38.522.807.866 1.166.987.24.082.442.07.61.028a1.03 1.03 0 0 0 .6-.401c.084-.114.162-.268.2-.464a4 4 0 0 0 .019-.443c.105-.361.233-.713.327-1.078.223-.869.66-1.419 1.181-2.146a4.07 4.07 0 0 1 1.776-1.449c.1-.024.903-.221 1.188-.334.415-.166.612-.443.684-.593.122-.253.134-.475.11-.66a1.08 1.08 0 0 0-.376-.694 1.33 1.33 0 0 0-.604-.287c-.208-.043-.76-.068-.837-.072m-4.718-1.416a6 6 0 0 1-.12.25c-.897 1.794-1.9 2.795-3.121 3.281l-.041.016a13.6 13.6 0 0 1 2.12 1.933c.233.267.54.823.873 1.392.302-.982.797-1.677 1.418-2.546.475-.663.973-1.162 1.584-1.569a7 7 0 0 1-1.321-.862 5.04 5.04 0 0 1-1.392-1.895" clip-rule="evenodd"/><path fill="#f077c7" fill-rule="evenodd" stroke="#f077c7" d="M121.831 41.689c-.706-2.435-2.097-4.34-4.228-5.715a.545.545 0 0 1-.162-.752.54.54 0 0 1 .747-.165c2.359 1.523 3.901 3.63 4.683 6.326a.546.546 0 0 1-.369.676.54.54 0 0 1-.671-.37Z" clip-rule="evenodd"/><path fill="#f077c7" fill-rule="evenodd" stroke="#f077c7" d="M146.165 38.384c.42.498.797 1.034 1.118 1.604.143.254.394.794.433 1.257.043.493-.123.91-.552 1.129-.57.29-1.025.26-1.376.084-.337-.169-.602-.5-.768-.945-.319-.85-.271-2.15-.104-2.892a10.5 10.5 0 0 0-1.467-1.262c-3.92-2.794-9.67-1.764-14.095 2.414-1.549 1.462-2.294 4.534-2.682 7.848-.604 5.16-.259 10.924-.212 12.613.011.417-.028.664-.05.714a.52.52 0 0 1-.407.33.67.67 0 0 1-.444-.063.7.7 0 0 1-.349-.458 2 2 0 0 1-.036-.487c.004-.129.03-.27.004-.363-.169-.593-.373-1.172-.572-1.755-.665-1.96-1.525-3.798-2.48-5.633-3.034-5.83-5.969-11.991-10.944-16.433a.546.546 0 0 1-.045-.77.54.54 0 0 1 .764-.045c5.075 4.53 8.09 10.797 11.185 16.743.812 1.561 1.557 3.124 2.176 4.76-.062-2.893-.039-6.897.488-10.439.468-3.15 1.358-5.935 2.863-7.357 4.847-4.576 11.169-5.569 15.462-2.508.459.328.897.688 1.304 1.079 2.246-4.08 7.054-5.715 11.304-3.763a.545.545 0 0 1-.451.99c-3.829-1.758-8.172-.189-10.067 3.608Zm-.314 1.366q.263.375.49.775c.08.143.218.419.277.689.013.063.015.162.015.207-.149.074-.266.11-.362.062-.119-.06-.179-.199-.238-.354-.147-.391-.195-.91-.182-1.379Z" clip-rule="evenodd"/></g><defs><linearGradient id="psiquicos-apply-promo-b" x1="69" x2="113.906" y1="61" y2="168.595" gradientUnits="userSpaceOnUse"><stop stop-color="#f1f1f1"/><stop offset="1" stop-color="#d9dbde"/></linearGradient><clipPath id="psiquicos-apply-promo-a"><path fill="#fff" d="M0 0h184v184H0z"/></clipPath></defs></svg>