<svg xmlns="http://www.w3.org/2000/svg" width="24" height="24" fill="none" viewBox="0 0 24 24"><path fill="currentColor" fill-rule="evenodd" d="M9 5.4A2.6 2.6 0 1 1 6.4 8 2.59 2.59 0 0 1 9 5.4m0 1.2c-.78 0-1.4.62-1.4 1.4A1.401 1.401 0 1 0 9 6.6" clip-rule="evenodd"/><path fill="currentColor" fill-rule="evenodd" d="M15 1.4c2.56 0 4.506.509 5.799 1.801 1.292 1.293 1.8 3.24 1.8 5.799v6c0 2.56-.508 4.506-1.8 5.799-1.293 1.292-3.24 1.8-5.799 1.8H9c-2.56 0-4.506-.508-5.799-1.8-1.292-1.293-1.8-3.24-1.8-5.799V9c0-2.56.508-4.506 1.8-5.799 1.293-1.292 3.24-1.8 5.799-1.8zm4.977 11.551c-.559-.479-1.483-.478-2.042.001h-.001l-4.16 3.568v-.001c-1.002.865-2.598.865-3.6-.001l-.332-.287H9.84c-.494-.427-1.339-.481-1.911-.094l-.003.002-4.488 3.009q.264.457.61.803c.958.958 2.511 1.45 4.952 1.45h6c2.44 0 3.994-.492 4.951-1.45.958-.957 1.45-2.51 1.45-4.951v-.822zM9 2.6c-2.44 0-3.994.491-4.951 1.449-.958.957-1.45 2.51-1.45 4.951v6c0 1.215.122 2.21.363 3.021l4.296-2.88c1.01-.682 2.45-.607 3.363.18l.338.287.002.002c.55.477 1.48.477 2.03 0l.002-.002 4.16-3.567.197-.152a2.85 2.85 0 0 1 3.212 0l.197.152v.001l.641.552V9c0-2.44-.491-3.994-1.449-4.951-.957-.958-2.51-1.45-4.951-1.45z" clip-rule="evenodd"/></svg>