<svg xmlns="http://www.w3.org/2000/svg" width="21" height="21" fill="none" viewBox="0 0 21 21"><path fill="#dfe2ef" d="M7.944 4.584c1.1-1.89 1.65-2.834 2.471-2.834s1.372.945 2.471 2.834l.284.488c.313.537.47.805.713.982.243.178.547.243 1.153.375l.553.12c2.134.462 3.202.693 3.456 1.475s-.474 1.598-1.93 3.228l-.376.421c-.414.463-.62.695-.713.982-.093.286-.062.595 0 1.213l.057.563c.22 2.174.33 3.262-.334 3.745-.665.483-1.665.043-3.664-.839l-.517-.228c-.568-.25-.852-.376-1.153-.376-.3 0-.585.126-1.153.376l-.517.228c-1.999.882-2.998 1.322-3.663.839s-.555-1.57-.335-3.745l.057-.563c.062-.618.094-.927 0-1.213-.092-.287-.3-.519-.713-.982l-.376-.421c-1.456-1.63-2.183-2.445-1.93-3.228.255-.782 1.322-1.013 3.457-1.476l.552-.12c.607-.13.91-.196 1.154-.374.243-.177.4-.445.712-.982z"/><path fill="#ff993c" d="M10.416 16.733c-.302 0-.586.126-1.154.376l-.518.229c-1.998.88-2.997 1.321-3.662.838s-.555-1.571-.335-3.746l.057-.562c.062-.618.094-.928 0-1.214-.092-.286-.3-.518-.713-.98l-.377-.422C2.26 9.622 1.532 8.807 1.785 8.025c.254-.782 1.322-1.014 3.457-1.477l.552-.12c.607-.131.91-.197 1.153-.374.244-.177.4-.445.713-.981l.285-.49c1.099-1.888 1.649-2.833 2.47-2.833z"/></svg>