<svg xmlns="http://www.w3.org/2000/svg" width="24" height="24" fill="none" viewBox="0 0 24 24"><path fill="currentColor" fill-rule="evenodd" d="M12 22c-4.72 0-7.08 0-8.54-1.47C2 19.07 2 16.71 2 12c0-4.72 0-7.08 1.46-8.54S7.28 2 12 2c4.71 0 7.07 0 8.53 1.46C22 4.92 22 7.28 22 12c0 4.71 0 7.07-1.47 8.53C19.07 22 16.71 22 12 22m0-4.25c.41 0 .75-.34.75-.75v-6c0-.42-.34-.75-.75-.75-.42 0-.75.33-.75.75v6c0 .41.33.75.75.75M12 7c.55 0 1 .44 1 1 0 .55-.45 1-1 1-.56 0-1-.45-1-1 0-.56.44-1 1-1" clip-rule="evenodd"/></svg>