<svg xmlns="http://www.w3.org/2000/svg" width="40" height="40" fill="none" viewBox="0 0 40 40"><path fill="currentColor" d="M3.672 4.99a1.25 1.25 0 0 0-.561 2.334s.324.157.825.967S5 10.496 5 12.851V31.25a1.25 1.25 0 1 0 2.5 0V12.852c0-.421-.043-.786-.073-1.167q.075-.212.073-.435a3.73 3.73 0 0 1 3.75-3.75A3.73 3.73 0 0 1 15 11.25v20a1.25 1.25 0 0 0 1.25 1.268 1.25 1.25 0 0 0 1.25-1.268v-20a3.73 3.73 0 0 1 3.75-3.75A3.73 3.73 0 0 1 25 11.25v17.5c0 .722.077 1.358.161 1.982a14.5 14.5 0 0 1-4.218 1.807 1.25 1.25 0 1 0 .615 2.422c1.573-.4 2.96-.997 4.214-1.71.5 1.22 1.222 2.148 2.119 2.799 1.784 1.295 3.945 1.45 5.86 1.45a1.252 1.252 0 0 0 1.17-1.733 1.25 1.25 0 0 0-1.17-.767c-1.749 0-3.34-.21-4.39-.972-.608-.44-1.11-1.138-1.446-2.212a18.1 18.1 0 0 0 4.36-5.058C34.296 23.3 35 19.848 35 17.813V17.5c0-2.746-2.254-5-5-5-.913 0-1.76.27-2.5.703V11.25C27.5 7.813 24.688 5 21.25 5c-2.047 0-3.858 1.011-5 2.544C15.108 6.01 13.297 5 11.25 5c-2.008 0-3.786.977-4.931 2.46-.086-.16-.166-.345-.254-.487C5.315 5.76 4.39 5.176 4.39 5.176a1.25 1.25 0 0 0-.718-.186M30 15c1.394 0 2.5 1.106 2.5 2.5v.313c0 1.391-.615 4.658-2.383 7.685a16 16 0 0 1-2.607 3.374c0-.046-.01-.075-.01-.122V17.5c0-1.394 1.107-2.5 2.5-2.5"/></svg>