<svg xmlns="http://www.w3.org/2000/svg" width="40" height="40" fill="none" viewBox="0 0 40 40"><path fill="currentColor" d="M18.75 5C9.123 5 2.935 10.303 2.935 10.303a1.251 1.251 0 1 0 1.63 1.894S10.033 7.5 18.75 7.5c3.974 0 7.255 1.263 9.732 2.656-3.406.706-5.982 3.736-5.982 7.344 0 4.127 3.373 7.5 7.5 7.5 4.128 0 7.5-3.373 7.5-7.5 0-2.15-.927-4.084-2.388-5.454C34.73 11.626 28.562 5 18.75 5M30 12.5a4.96 4.96 0 0 1 3.257 1.226l.132.126q.1.114.224.2A4.97 4.97 0 0 1 35 17.5c0 2.776-2.224 5-5 5s-5-2.224-5-5 2.224-5 5-5M10 15c-4.127 0-7.5 3.373-7.5 7.5 0 2.089.868 3.979 2.256 5.342q.08.158.2.288S11.151 35 21.25 35c9.627 0 15.816-5.303 15.816-5.303a1.251 1.251 0 1 0-1.631-1.894S29.968 32.5 21.25 32.5c-4.096 0-7.415-1.267-9.863-2.637 3.47-.655 6.113-3.71 6.113-7.363 0-4.127-3.372-7.5-7.5-7.5m0 2.5c2.777 0 5 2.224 5 5s-2.223 5-5 5c-2.776 0-5-2.224-5-5s2.224-5 5-5"/></svg>